<svg xmlns="http://www.w3.org/2000/svg" viewBox="0 0 24 24" fill="black" width="48px" height="48px">
  <path d="M 10.326 1.562 L 2.701 1.562 C 2.102 1.562 1.611 2.053 1.611 2.651 L 1.611 10.277 C 1.611 10.876 2.102 11.366 2.701 11.366 L 10.326 11.366 C 10.926 11.366 11.416 10.876 11.416 10.277 L 11.416 2.651 C 11.416 2.053 10.926 1.562 10.326 1.562 Z M 6.513 7.282 C 6.062 7.282 5.697 6.917 5.697 6.464 C 5.697 6.012 6.062 5.648 6.513 5.648 C 6.966 5.648 7.331 6.012 7.331 6.464 C 7.331 6.917 6.966 7.282 6.513 7.282 Z" style="" transform="matrix(0.943971, -0.330029, 0.330029, 0.943971, -1.768361, 2.511816)"></path>
  <path d="M 18.683 6.664 L 10.818 6.664 C 10.2 6.664 9.693 7.174 9.693 7.796 L 9.693 15.718 C 9.693 16.34 10.2 16.849 10.818 16.849 L 18.683 16.849 C 19.302 16.849 19.807 16.34 19.807 15.718 L 19.807 7.796 C 19.807 7.174 19.302 6.664 18.683 6.664 Z M 14.75 12.606 C 14.285 12.606 13.908 12.227 13.908 11.757 C 13.908 11.286 14.285 10.909 14.75 10.909 C 15.217 10.909 15.594 11.286 15.594 11.757 C 15.594 12.227 15.217 12.606 14.75 12.606 Z" style="fill: rgba(255, 255, 255, 0);" transform="matrix(0.840405, 0.541959, -0.541959, 0.840405, 8.725566, -6.117614)"></path>
  <path d="M 21.05 5.861 L 13.425 5.861 C 12.826 5.861 12.335 6.352 12.335 6.95 L 12.335 14.576 C 12.335 15.175 12.826 15.665 13.425 15.665 L 21.05 15.665 C 21.65 15.665 22.14 15.175 22.14 14.576 L 22.14 6.95 C 22.14 6.352 21.65 5.861 21.05 5.861 Z M 17.237 11.581 C 16.786 11.581 16.421 11.216 16.421 10.763 C 16.421 10.311 16.786 9.947 17.237 9.947 C 17.69 9.947 18.055 10.311 18.055 10.763 C 18.055 11.216 17.69 11.581 17.237 11.581 Z" style="" transform="matrix(0.840405, 0.541959, -0.541959, 0.840405, 8.584122, -7.624295)"></path>
  <path d="M 11.389 11.108 L 3.524 11.108 C 2.906 11.108 2.399 11.618 2.399 12.24 L 2.399 20.162 C 2.399 20.784 2.906 21.293 3.524 21.293 L 11.389 21.293 C 12.008 21.293 12.513 20.784 12.513 20.162 L 12.513 12.24 C 12.513 11.618 12.008 11.108 11.389 11.108 Z M 7.456 17.05 C 6.991 17.05 6.614 16.671 6.614 16.201 C 6.614 15.73 6.991 15.353 7.456 15.353 C 7.923 15.353 8.3 15.73 8.3 16.201 C 8.3 16.671 7.923 17.05 7.456 17.05 Z" style="fill: rgba(255, 255, 255, 0);" transform="matrix(0.997765, -0.066828, 0.066828, 0.997765, -1.065978, 0.534485)"></path>
  <path d="M 9.629 13.429 L 2.004 13.429 C 1.405 13.429 0.914 13.92 0.914 14.518 L 0.914 22.144 C 0.914 22.743 1.405 23.233 2.004 23.233 L 9.629 23.233 C 10.229 23.233 10.719 22.743 10.719 22.144 L 10.719 14.518 C 10.719 13.92 10.229 13.429 9.629 13.429 Z M 5.816 19.149 C 5.365 19.149 5 18.784 5 18.331 C 5 17.879 5.365 17.515 5.816 17.515 C 6.269 17.515 6.634 17.879 6.634 18.331 C 6.634 18.784 6.269 19.149 5.816 19.149 Z" style="" transform="matrix(0.997869, -0.065244, 0.065244, 0.997869, -1.183595, 0.418549)"></path>
</svg>
